<svg xmlns="http://www.w3.org/2000/svg" viewBox="0 0 32 32" width="32" height="32">
  <defs>
    <linearGradient id="grad" x1="0%" y1="0%" x2="100%" y2="100%">
      <stop offset="0%" style="stop-color:#ff6b6b;stop-opacity:1" />
      <stop offset="100%" style="stop-color:#4ecdc4;stop-opacity:1" />
    </linearGradient>
  </defs>
  
  <!-- Background circle -->
  <circle cx="16" cy="16" r="15" fill="url(#grad)" stroke="#fff" stroke-width="1"/>
  
  <!-- Heart shape for wishes -->
  <path d="M16 26c-1-1-8-6-8-12 0-3 2-5 5-5 2 0 3 1 3 3 0-2 1-3 3-3 3 0 5 2 5 5 0 6-7 11-8 12z" fill="#fff"/>
  
  <!-- Small star for magic/wishes -->
  <polygon points="16,8 17,11 20,11 18,13 19,16 16,14 13,16 14,13 12,11 15,11" fill="#ffd93d" stroke="#fff" stroke-width="0.5"/>
</svg>